<svg xmlns="http://www.w3.org/2000/svg" xmlns:xlink="http://www.w3.org/1999/xlink" xmlns:lucid="lucid" width="1760" height="680"><g transform="translate(0 0)" lucid:page-tab-id="0_0"><path d="M0 0h1760v1360H0z" fill="#fff"/><path d="M841 376h77a12 12 0 0 0 12-12V245.5a12 12 0 0 1 12-12h298M821 376h20m-10 10v-20m10 20v-20" stroke="#333" fill="none"/><path d="M1240 273.28v-20m10 20l-10-20m-10 20l10-20m10-10c0 5.52-4.48 10-10 10s-10-4.48-10-10c0-5.53 4.48-10 10-10s10 4.47 10 10z" stroke="#333" fill="#fff"/><path d="M440 265a5 5 0 0 1 5-5h370.5a5 5 0 0 1 5 5v218a5 5 0 0 1-5 5H445a5 5 0 0 1-5-5z" fill="#fff"/><path d="M440 300v31h380.5v-31" fill="#fff"/><path d="M440 330v31h380.5v-31" fill="#fff"/><path d="M440 360v33h380.5v-33" fill="#fff"/><path d="M440 392v33h380.5v-33" fill="#fff"/><path d="M440 424v33h380.5v-33" fill="#fff"/><path d="M440 456v27a5 5 0 0 0 5 5h370.5a5 5 0 0 0 5-5v-27" fill="#fff"/><path d="M440 300v-35a5 5 0 0 1 5-5h370.5a5 5 0 0 1 5 5v35" fill="#ccc"/><path d="M440 265a5 5 0 0 1 5-5h370.5a5 5 0 0 1 5 5v218a5 5 0 0 1-5 5H445a5 5 0 0 1-5-5zM440 300h380.5M620 300v188" stroke="#333" fill="none"/><use xlink:href="#a" transform="matrix(1,0,0,1,450,260) translate(149.87675292968748 26.089501953125)"/><use xlink:href="#b" transform="matrix(1,0,0,1,445,302.5) translate(74.03072265624999 18.589501953125)"/><use xlink:href="#c" transform="matrix(1,0,0,1,625,302.5) translate(0 18.589501953125)"/><use xlink:href="#d" transform="matrix(1,0,0,1,445,332.5) translate(56.8452490234375 18.589501953125)"/><use xlink:href="#e" transform="matrix(1,0,0,1,625,332.5) translate(0 18.589501953125)"/><use xlink:href="#f" transform="matrix(1,0,0,1,625,362.5) translate(0 19.589501953125)"/><use xlink:href="#g" transform="matrix(1,0,0,1,625,394.5) translate(0 19.589501953125)"/><use xlink:href="#h" transform="matrix(1,0,0,1,625,426.5) translate(0 19.589501953125)"/><use xlink:href="#i" transform="matrix(1,0,0,1,625,458.5) translate(0 19.589501953125)"/><path d="M1100 279a5 5 0 0 1 5-5h270a5 5 0 0 1 5 5v218a5 5 0 0 1-5 5h-270a5 5 0 0 1-5-5z" fill="#fff"/><path d="M1100 314v31h280v-31" fill="#fff"/><path d="M1100 344v31h280v-31" fill="#fff"/><path d="M1100 374v33h280v-33" fill="#fff"/><path d="M1100 406v33h280v-33" fill="#fff"/><path d="M1100 438v33h280v-33" fill="#fff"/><path d="M1100 470v27a5 5 0 0 0 5 5h270a5 5 0 0 0 5-5v-27" fill="#fff"/><path d="M1100 314v-35a5 5 0 0 1 5-5h270a5 5 0 0 1 5 5v35" fill="#ccc"/><path d="M1100 279a5 5 0 0 1 5-5h270a5 5 0 0 1 5 5v218a5 5 0 0 1-5 5h-270a5 5 0 0 1-5-5zM1100 314h280M1242.67 314v188" stroke="#333" fill="none"/><use xlink:href="#j" transform="matrix(1,0,0,1,1110,274) translate(0 26.089501953125)"/><use xlink:href="#k" transform="matrix(1,0,0,1,1110,274) translate(94.1625 26.089501953125)"/><use xlink:href="#b" transform="matrix(1,0,0,1,1105,316.5) translate(55.53072265625 18.589501953125)"/><use xlink:href="#c" transform="matrix(1,0,0,1,1247.6666666666667,316.5) translate(0 18.589501953125)"/><use xlink:href="#l" transform="matrix(1,0,0,1,1105,346.5) translate(55.935327148437494 18.589501953125)"/><use xlink:href="#m" transform="matrix(1,0,0,1,1247.6666666666667,346.5) translate(0 18.589501953125)"/><use xlink:href="#f" transform="matrix(1,0,0,1,1247.6666666666667,376.5) translate(0 19.589501953125)"/><use xlink:href="#n" transform="matrix(1,0,0,1,1247.6666666666667,408.5) translate(0 19.589501953125)"/><use xlink:href="#h" transform="matrix(1,0,0,1,1247.6666666666667,440.5) translate(0 19.589501953125)"/><use xlink:href="#i" transform="matrix(1,0,0,1,1247.6666666666667,472.5) translate(0 19.589501953125)"/><path d="M440 76a8 8 0 0 1 8-8h836.75a8 8 0 0 1 8 8v25.16a8 8 0 0 1-8 8H448a8 8 0 0 1-8-8z" stroke="#000" stroke-opacity="0" stroke-width="2" fill="#fff" fill-opacity="0"/><use xlink:href="#o" transform="matrix(1,0,0,1,444,71.99999999994924) translate(300.05434244791667 28.429583333333333)"/><use xlink:href="#p" transform="matrix(1,0,0,1,444,71.99999999994924) translate(419.78477864583334 28.429583333333333)"/><use xlink:href="#q" transform="matrix(1,0,0,1,444,71.99999999994924) translate(456.38859375000004 28.429583333333333)"/><use xlink:href="#r" transform="matrix(1,0,0,1,444,71.99999999994924) translate(473.57119140625 28.429583333333333)"/><path d="M528.82 107.8h681.06M528.85 107.8h-1.03M1209.86 107.8h1.02" stroke="#a9afb8" stroke-width="2" fill="none"/><path d="M453.15 117.16a8 8 0 0 1 8-8h837.7a8 8 0 0 1 8 8V120a8 8 0 0 1-8 8h-837.7a8 8 0 0 1-8-8z" stroke="#000" stroke-opacity="0" stroke-width="2" fill="#fff" fill-opacity="0"/><g><use xlink:href="#s" transform="matrix(1,0,0,1,457.1465527853434,113.15522395684805) translate(347.3019034830729 16.461006944444446)"/><use xlink:href="#t" transform="matrix(1,0,0,1,457.1465527853434,113.15522395684805) translate(384.6092564561632 16.461006944444446)"/><use xlink:href="#u" transform="matrix(1,0,0,1,457.1465527853434,113.15522395684805) translate(447.3809095594618 16.461006944444446)"/></g><defs><path d="M763 24c-353 0-583-224-583-531v-983h190v968c0 214 149 370 393 370 243 0 391-156 391-370v-968h190v983c0 307-230 531-581 531" id="v"/><path d="M538 24C308 24 148-78 108-271l171-41c32 123 123 178 257 178 156 0 256-77 256-169 0-77-54-128-164-154l-186-44c-203-48-300-148-300-305 0-192 176-326 414-326 230 0 351 112 402 269l-163 42c-31-80-94-158-238-158-133 0-233 69-233 162 0 83 57 129 188 160l169 40c203 48 298 149 298 302 0 196-179 339-441 339" id="w"/><path d="M537 14c-226 0-379-139-379-422v-710h180v695c0 172 97 275 253 275 160 0 281-109 281-300v-670h181V0H879v-209C806-46 684 14 537 14" id="x"/><path d="M471 26C259 26 90-98 90-318c0-256 228-303 435-329 202-27 287-16 287-108 0-139-79-219-234-219-161 0-248 86-283 164l-173-57c86-203 278-265 451-265 150 0 419 46 419 395V0H815v-152h-12C765-73 660 26 471 26zm31-159c199 0 310-134 310-271v-155c-30 35-226 55-295 64-131 17-246 59-246 186 0 116 97 176 231 176zm-23-1131l140-294h201l-194 294H479" id="y"/><path d="M158 0v-1118h174v172h12c41-113 157-188 290-188 26 0 70 2 91 3v181c-11-2-60-10-108-10-161 0-279 109-279 260V0H158" id="z"/><path d="M158 0v-1118h180V0H158zm91-1301c-68 0-125-53-125-119s57-119 125-119c69 0 126 53 126 119s-57 119-126 119" id="A"/><path d="M613 24c-304 0-509-231-509-576 0-350 205-580 509-580 305 0 511 230 511 580 0 345-206 576-511 576zm0-161c226 0 329-195 329-415 0-222-103-419-329-419-223 0-326 196-326 419 0 220 103 415 326 415" id="B"/><g id="a"><use transform="matrix(0.008173828125000001,0,0,0.008173828125000001,0,0)" xlink:href="#v"/><use transform="matrix(0.008173828125000001,0,0,0.008173828125000001,12.456914062500001,0)" xlink:href="#w"/><use transform="matrix(0.008173828125000001,0,0,0.008173828125000001,21.292822265625002,0)" xlink:href="#x"/><use transform="matrix(0.008173828125000001,0,0,0.008173828125000001,31.191328125000005,0)" xlink:href="#y"/><use transform="matrix(0.008173828125000001,0,0,0.008173828125000001,40.591230468750005,0)" xlink:href="#z"/><use transform="matrix(0.008173828125000001,0,0,0.008173828125000001,47.154814453125,0)" xlink:href="#A"/><use transform="matrix(0.008173828125000001,0,0,0.008173828125000001,51.209033203125,0)" xlink:href="#B"/></g><path d="M180 0v-1490h510c348 0 508 209 508 474 0 266-160 477-507 477H370V0H180zm190-706h312c236 0 327-133 327-310 0-176-91-307-329-307H370v617" id="C"/><path d="M180 0v-1490h190c0 262 1 526-3 784 217-279 467-523 702-784h249L716-845 1319 0h-225L585-716 370-489V0H180" id="D"/><g id="b"><use transform="matrix(0.008173828125000001,0,0,0.008173828125000001,0,0)" xlink:href="#C"/><use transform="matrix(0.008173828125000001,0,0,0.008173828125000001,10.691367187500001,0)" xlink:href="#D"/></g><path fill="#333" d="M66 0l185-1118h180L246 0H66zm307-1301c-71 0-117-55-106-119s74-119 145-119c65 0 117 50 106 118s-78 120-145 120" id="E"/><path fill="#333" d="M492 24C248 24 94-147 94-425c0-352 212-707 569-707 222 0 274 136 303 198h12l92-556h181L1004 0H829l30-173h-19C792-103 700 24 492 24zm32-161c268 0 407-295 407-549 0-175-80-285-247-285-266 0-408 283-408 536 0 174 79 298 248 298" id="F"/><g id="c"><use transform="matrix(0.008173828125000001,0,0,0.008173828125000001,0,0)" xlink:href="#E"/><use transform="matrix(0.008173828125000001,0,0,0.008173828125000001,4.062392578125,0)" xlink:href="#F"/></g><path d="M338-670V0H158v-1118h173l1 207c72-158 192-221 342-221 226 0 378 139 378 422V0H872v-695c0-172-96-275-252-275-161 0-282 109-282 300" id="G"/><path d="M1096 418H916v-591h-14C865-111 790 24 577 24c-279 0-473-224-473-580 0-354 195-576 474-576 218 0 287 134 324 193h20v-179h174V418zM604-137c203 0 314-172 314-421 0-247-108-413-314-413-212 0-317 181-317 413 0 235 108 421 317 421" id="H"/><path d="M628 24c-324 0-524-230-524-574 0-343 198-582 503-582 237 0 487 146 487 559v75H286c9 234 145 362 343 362 132 0 231-58 273-172l174 48C1024-91 857 24 628 24zM287-650h624c-17-190-120-322-304-322-192 0-309 151-320 322" id="I"/><g id="d"><use transform="matrix(0.008173828125000001,0,0,0.008173828125000001,0,0)" xlink:href="#v"/><use transform="matrix(0.008173828125000001,0,0,0.008173828125000001,12.456914062500001,0)" xlink:href="#G"/><use transform="matrix(0.008173828125000001,0,0,0.008173828125000001,22.34724609375,0)" xlink:href="#A"/><use transform="matrix(0.008173828125000001,0,0,0.008173828125000001,26.401464843750002,0)" xlink:href="#H"/><use transform="matrix(0.008173828125000001,0,0,0.008173828125000001,36.6514453125,0)" xlink:href="#x"/><use transform="matrix(0.008173828125000001,0,0,0.008173828125000001,46.549951171875,0)" xlink:href="#I"/></g><path fill="#333" d="M535 24C259 24 94-144 94-427c0-392 272-715 610-715 216 0 356 119 356 305 0 244-237 344-790 350-18 199 49 349 276 352 142 0 260-66 317-173l167 47C947-85 756 24 535 24zM294-623c447-4 586-57 586-218 0-85-78-141-194-141-220 0-342 177-392 359" id="J"/><path fill="#333" d="M65 0l186-1118h175l-31 195c80-148 212-215 337-215 153 0 236 96 255 228 75-143 223-228 382-228 199 0 341 131 298 390L1543 0h-181l126-756c27-162-65-218-177-218-160 0-274 111-297 250L894 0H714l128-773c21-127-57-201-174-201-136 0-277 97-307 277L245 0H65" id="K"/><path fill="#333" d="M481 24C202 24 45-202 104-557s293-575 571-575c216 0 263 132 291 193h15l29-179h181L1006 0H831l28-173h-21C788-107 693 24 481 24zm56-161c204 0 342-174 383-422s-41-412-245-412c-215 0-350 183-388 412-39 235 39 422 250 422" id="L"/><path fill="#333" d="M492-1490L245 0H65l247-1490h180" id="M"/><g id="e"><use transform="matrix(0.008173828125000001,0,0,0.008173828125000001,0,0)" xlink:href="#J"/><use transform="matrix(0.008173828125000001,0,0,0.008173828125000001,9.636943359375001,0)" xlink:href="#K"/><use transform="matrix(0.008173828125000001,0,0,0.008173828125000001,24.300791015625002,0)" xlink:href="#L"/><use transform="matrix(0.008173828125000001,0,0,0.008173828125000001,34.575292968750006,0)" xlink:href="#E"/><use transform="matrix(0.008173828125000001,0,0,0.008173828125000001,38.637685546875005,0)" xlink:href="#M"/></g><path fill="#333" d="M356-664L245 0H65l186-1118h173l-32 197c96-152 219-211 366-211 232 0 366 145 319 428L960 0H779l117-701c29-174-48-269-198-269-165 0-310 115-342 306" id="N"/><path fill="#333" d="M528 24C258 24 94-156 94-433c0-355 229-699 603-699 270 0 436 178 436 458 0 359-234 698-605 698zm4-161c275 0 420-287 420-533 0-170-77-301-260-301-271 0-418 288-418 536 0 168 77 298 258 298" id="O"/><g id="f"><use transform="matrix(0.008173828125000001,0,0,0.008173828125000001,0,0)" xlink:href="#N"/><use transform="matrix(0.008173828125000001,0,0,0.008173828125000001,9.898505859375001,0)" xlink:href="#O"/><use transform="matrix(0.008173828125000001,0,0,0.008173828125000001,19.944140625000003,0)" xlink:href="#K"/><use transform="matrix(0.008173828125000001,0,0,0.008173828125000001,34.60798828125,0)" xlink:href="#J"/></g><path fill="#333" d="M451 24C217 22 71-78 61-277l174-29c11 123 90 172 219 172 161 0 280-83 297-181 11-71-30-117-135-143l-179-44c-195-48-280-153-253-316 31-186 223-314 455-314 233 4 337 107 366 275l-165 30c-18-80-65-152-204-152-138 0-256 75-272 174-13 77 32 118 158 149l162 40c195 48 278 154 252 313C904-113 708 24 451 24" id="P"/><path fill="#333" d="M356-670L245 0H65l247-1490h180l-94 565c97-150 219-207 362-207 226 0 365 139 318 422L960 0H779l116-695c29-174-53-275-208-275-158 0-299 107-331 300" id="Q"/><g id="g"><use transform="matrix(0.008173828125000001,0,0,0.008173828125000001,0,0)" xlink:href="#P"/><use transform="matrix(0.008173828125000001,0,0,0.008173828125000001,8.827734375,0)" xlink:href="#J"/><use transform="matrix(0.008173828125000001,0,0,0.008173828125000001,18.464677734375,0)" xlink:href="#N"/><use transform="matrix(0.008173828125000001,0,0,0.008173828125000001,28.36318359375,0)" xlink:href="#Q"/><use transform="matrix(0.008173828125000001,0,0,0.008173828125000001,38.261689453125,0)" xlink:href="#L"/></g><path fill="#333" d="M691-1118l-25 154H437L325-290c-17 103 16 144 108 144 23 0 63-6 94-12L538-6c-36 12-87 20-136 20-196 0-290-109-260-290l114-688H88l25-154h169l44-266h180l-44 266h229" id="R"/><path fill="#333" d="M841 0l-27 166h-934L-93 0h934" id="S"/><path fill="#333" d="M528 24C258 24 94-156 94-433c0-354 228-699 603-699 222 0 381 120 410 314l-176 39c-14-114-95-192-238-192-272 0-419 288-419 536 0 167 76 298 258 298 155 0 277-90 329-211l166 58C935-93 745 24 528 24" id="T"/><path fill="#333" d="M66 0l185-1118h174l-28 172h12c78-136 219-209 411-185l-30 181c-211-47-398 67-428 250L246 0H66" id="U"/><g id="h"><use transform="matrix(0.008173828125000001,0,0,0.008173828125000001,0,0)" xlink:href="#F"/><use transform="matrix(0.008173828125000001,0,0,0.008173828125000001,10.258154296875,0)" xlink:href="#L"/><use transform="matrix(0.008173828125000001,0,0,0.008173828125000001,20.532656250000002,0)" xlink:href="#R"/><use transform="matrix(0.008173828125000001,0,0,0.008173828125000001,25.8619921875,0)" xlink:href="#L"/><use transform="matrix(0.008173828125000001,0,0,0.008173828125000001,36.136494140625004,0)" xlink:href="#S"/><use transform="matrix(0.008173828125000001,0,0,0.008173828125000001,43.770849609375006,0)" xlink:href="#T"/><use transform="matrix(0.008173828125000001,0,0,0.008173828125000001,53.34240234375001,0)" xlink:href="#U"/><use transform="matrix(0.008173828125000001,0,0,0.008173828125000001,59.914160156250006,0)" xlink:href="#E"/><use transform="matrix(0.008173828125000001,0,0,0.008173828125000001,63.976552734375005,0)" xlink:href="#L"/><use transform="matrix(0.008173828125000001,0,0,0.008173828125000001,74.25105468750002,0)" xlink:href="#T"/><use transform="matrix(0.008173828125000001,0,0,0.008173828125000001,83.822607421875,0)" xlink:href="#L"/><use transform="matrix(0.008173828125000001,0,0,0.008173828125000001,94.097109375,0)" xlink:href="#O"/></g><path fill="#333" d="M443 14C219 14 87-123 134-408l117-710h180L317-423c-28 171 49 275 206 275s300-105 332-300l110-670h181L961 0H787l35-209C722-47 590 14 443 14" id="V"/><path fill="#333" d="M33 0l23-134 752-806 2-11H211l27-167h839l-24 143-732 797-2 11h620L912 0H33" id="W"/><g id="i"><use transform="matrix(0.008173828125000001,0,0,0.008173828125000001,0,0)" xlink:href="#F"/><use transform="matrix(0.008173828125000001,0,0,0.008173828125000001,10.258154296875,0)" xlink:href="#L"/><use transform="matrix(0.008173828125000001,0,0,0.008173828125000001,20.532656250000002,0)" xlink:href="#R"/><use transform="matrix(0.008173828125000001,0,0,0.008173828125000001,25.8619921875,0)" xlink:href="#L"/><use transform="matrix(0.008173828125000001,0,0,0.008173828125000001,36.136494140625004,0)" xlink:href="#S"/><use transform="matrix(0.008173828125000001,0,0,0.008173828125000001,43.770849609375006,0)" xlink:href="#L"/><use transform="matrix(0.008173828125000001,0,0,0.008173828125000001,54.04535156250001,0)" xlink:href="#R"/><use transform="matrix(0.008173828125000001,0,0,0.008173828125000001,59.53816406250001,0)" xlink:href="#V"/><use transform="matrix(0.008173828125000001,0,0,0.008173828125000001,69.44484375,0)" xlink:href="#L"/><use transform="matrix(0.008173828125000001,0,0,0.008173828125000001,79.719345703125,0)" xlink:href="#M"/><use transform="matrix(0.008173828125000001,0,0,0.008173828125000001,83.773564453125,0)" xlink:href="#E"/><use transform="matrix(0.008173828125000001,0,0,0.008173828125000001,87.83595703125,0)" xlink:href="#W"/><use transform="matrix(0.008173828125000001,0,0,0.008173828125000001,96.835341796875,0)" xlink:href="#L"/><use transform="matrix(0.008173828125000001,0,0,0.008173828125000001,107.10984375,0)" xlink:href="#T"/><use transform="matrix(0.008173828125000001,0,0,0.008173828125000001,116.681396484375,0)" xlink:href="#L"/><use transform="matrix(0.008173828125000001,0,0,0.008173828125000001,126.9558984375,0)" xlink:href="#O"/></g><path fill="#333" d="M226-1323l28-167h1126l-28 167H885L666 0H476l219-1323H226" id="X"/><path fill="#333" d="M780-1118l-24 146H497L317 116C281 334 148 448-56 448c-43 0-82-5-117-17l45-161c143 34 239 0 264-153L316-972H89l24-146h227l13-77c43-287 254-417 541-345l-50 154c-23-5-81-8-121-8-107 0-167 63-189 196l-13 80h259" id="Y"/><g id="k"><use transform="matrix(0.008173828125000001,0,0,0.008173828125000001,0,0)" xlink:href="#X"/><use transform="matrix(0.008173828125000001,0,0,0.008173828125000001,9.5143359375,0)" xlink:href="#L"/><use transform="matrix(0.008173828125000001,0,0,0.008173828125000001,19.788837890625004,0)" xlink:href="#U"/><use transform="matrix(0.008173828125000001,0,0,0.008173828125000001,25.821123046875,0)" xlink:href="#J"/><use transform="matrix(0.008173828125000001,0,0,0.008173828125000001,35.458066406250005,0)" xlink:href="#Y"/><use transform="matrix(0.008173828125000001,0,0,0.008173828125000001,41.21244140625001,0)" xlink:href="#L"/></g><path d="M180 0v-1490h901v168H370v510h643v168H370V0H180" id="Z"/><g id="l"><use transform="matrix(0.008173828125000001,0,0,0.008173828125000001,0,0)" xlink:href="#Z"/><use transform="matrix(0.008173828125000001,0,0,0.008173828125000001,9.882158203125002,0)" xlink:href="#D"/></g><g id="m"><use transform="matrix(0.008173828125000001,0,0,0.008173828125000001,0,0)" xlink:href="#E"/><use transform="matrix(0.008173828125000001,0,0,0.008173828125000001,4.062392578125,0)" xlink:href="#F"/><use transform="matrix(0.008173828125000001,0,0,0.008173828125000001,14.320546875000002,0)" xlink:href="#S"/><use transform="matrix(0.008173828125000001,0,0,0.008173828125000001,21.954902343750003,0)" xlink:href="#V"/><use transform="matrix(0.008173828125000001,0,0,0.008173828125000001,31.861582031250006,0)" xlink:href="#P"/><use transform="matrix(0.008173828125000001,0,0,0.008173828125000001,40.68931640625,0)" xlink:href="#V"/><use transform="matrix(0.008173828125000001,0,0,0.008173828125000001,50.59599609375,0)" xlink:href="#L"/><use transform="matrix(0.008173828125000001,0,0,0.008173828125000001,60.87049804687501,0)" xlink:href="#U"/><use transform="matrix(0.008173828125000001,0,0,0.008173828125000001,67.44225585937501,0)" xlink:href="#E"/><use transform="matrix(0.008173828125000001,0,0,0.008173828125000001,71.50464843750001,0)" xlink:href="#O"/></g><g id="n"><use transform="matrix(0.008173828125000001,0,0,0.008173828125000001,0,0)" xlink:href="#F"/><use transform="matrix(0.008173828125000001,0,0,0.008173828125000001,10.258154296875,0)" xlink:href="#J"/><use transform="matrix(0.008173828125000001,0,0,0.008173828125000001,19.89509765625,0)" xlink:href="#P"/><use transform="matrix(0.008173828125000001,0,0,0.008173828125000001,28.72283203125,0)" xlink:href="#T"/><use transform="matrix(0.008173828125000001,0,0,0.008173828125000001,38.294384765625,0)" xlink:href="#U"/><use transform="matrix(0.008173828125000001,0,0,0.008173828125000001,44.86614257812499,0)" xlink:href="#E"/><use transform="matrix(0.008173828125000001,0,0,0.008173828125000001,48.92853515624999,0)" xlink:href="#T"/><use transform="matrix(0.008173828125000001,0,0,0.008173828125000001,58.500087890625,0)" xlink:href="#L"/><use transform="matrix(0.008173828125000001,0,0,0.008173828125000001,68.77458984375,0)" xlink:href="#O"/></g><path fill="#a9afb8" d="M659 0H135v-1490h529c448 0 721 280 721 744 0 466-273 746-726 746zM440-263h204c287 0 437-148 437-483 0-333-150-481-435-481H440v964" id="aa"/><path fill="#a9afb8" d="M128 0v-1118h300V0H128zm150-1264c-91 0-165-68-165-154 0-85 74-154 165-154 90 0 165 69 165 154 0 86-75 154-165 154" id="ab"/><path fill="#a9afb8" d="M440 22C227 22 68-92 68-313c0-250 202-322 422-343 195-21 271-24 271-105 0-95-63-149-175-149-116 0-187 57-211 129l-275-46c57-194 237-305 487-305 240 0 474 108 474 379V0H777v-155h-10C713-51 605 22 440 22zm85-211c140 0 238-93 238-211v-121c-37 26-156 42-222 51-111 16-185 59-185 149 0 87 70 132 169 132" id="ac"/><path fill="#a9afb8" d="M625 442c-280 0-454-114-503-274l258-72c28 63 97 128 243 128 153 0 246-69 246-216v-206h-23C805-108 717-16 536-16 284-16 81-191 81-561c0-378 208-571 456-571 188 0 280 113 321 202h13v-188h295V-9c0 303-226 451-541 451zm5-686c153 0 240-119 240-319 0-198-86-329-240-329-158 0-241 137-241 329 0 195 85 319 241 319" id="ad"/><path fill="#a9afb8" d="M128 0v-1118h290v195h12c54-169 184-238 367-200v268c-27-8-86-15-130-15-138 0-239 95-239 234V0H128" id="ae"/><path fill="#a9afb8" d="M128 0v-1118h278l12 217c60-163 185-234 319-234 143 0 236 81 288 251 63-172 205-251 359-251 205 0 357 138 357 381V0h-301v-697c0-126-76-187-177-187-114 0-184 79-184 196V0H789v-705c0-109-72-179-174-179-106 0-187 74-187 208V0H128" id="af"/><g id="o"><use transform="matrix(0.011907552083333333,0,0,0.011907552083333333,0,0)" xlink:href="#aa"/><use transform="matrix(0.011907552083333333,0,0,0.011907552083333333,17.61126953125,0)" xlink:href="#ab"/><use transform="matrix(0.011907552083333333,0,0,0.011907552083333333,24.219960937499998,0)" xlink:href="#ac"/><use transform="matrix(0.011907552083333333,0,0,0.011907552083333333,38.37804036458333,0)" xlink:href="#ad"/><use transform="matrix(0.011907552083333333,0,0,0.011907552083333333,53.78641276041665,0)" xlink:href="#ae"/><use transform="matrix(0.011907552083333333,0,0,0.011907552083333333,63.38389973958332,0)" xlink:href="#ac"/><use transform="matrix(0.011907552083333333,0,0,0.011907552083333333,77.54197916666666,0)" xlink:href="#af"/><use transform="matrix(0.011907552083333333,0,0,0.011907552083333333,99.79719401041666,0)" xlink:href="#ac"/></g><path fill="#a9afb8" d="M135 0v-1490h997v253H440v360h640v249H440v375h694V0H135" id="ag"/><path fill="#a9afb8" d="M135 0v-1490h581c339 0 533 192 533 485 0 204-94 351-264 424L1302 0H964L680-532H440V0H135zm305-779h220c186 0 274-77 274-226 0-150-88-233-275-233H440v459" id="ah"/><g id="p"><use transform="matrix(0.011907552083333333,0,0,0.011907552083333333,0,0)" xlink:href="#ag"/><use transform="matrix(0.011907552083333333,0,0,0.011907552083333333,14.812994791666666,0)" xlink:href="#ah"/></g><path fill="#a9afb8" d="M818-733v240H140v-240h678" id="ai"/><use transform="matrix(0.011907552083333333,0,0,0.011907552083333333,0,0)" xlink:href="#ai" id="q"/><path fill="#a9afb8" d="M75-1237v-253h1217v253H837V0H531v-1237H75" id="aj"/><path fill="#a9afb8" d="M572 22C302 22 117-98 78-306l279-48c29 105 101 156 224 156 114 0 185-48 185-115 0-118-228-130-337-155-215-49-322-150-322-317 0-215 187-347 470-347 265 0 424 116 466 298l-266 47c-24-76-87-130-196-130-98 0-174 46-174 113 0 56 38 95 144 117l201 40c216 44 320 143 320 302 0 220-207 367-500 367" id="ak"/><path fill="#a9afb8" d="M128 0v-1490h300v802h17l366-430h347L740-633 1179 0H826L514-456l-86 97V0H128" id="al"/><path fill="#a9afb8" d="M428-1490V0H128v-1490h300" id="am"/><path fill="#a9afb8" d="M120 396l69-226c123 42 245 23 254-107l8-60L31-1118h319c87 288 199 559 259 872 72-308 185-583 277-872h315L726 132c-68 181-186 294-410 294-79 0-153-13-196-30" id="an"/><g id="r"><use transform="matrix(0.011907552083333333,0,0,0.011907552083333333,0,0)" xlink:href="#aj"/><use transform="matrix(0.011907552083333333,0,0,0.011907552083333333,14.491490885416667,0)" xlink:href="#ac"/><use transform="matrix(0.011907552083333333,0,0,0.011907552083333333,28.6495703125,0)" xlink:href="#ak"/><use transform="matrix(0.011907552083333333,0,0,0.011907552083333333,42.30753255208333,0)" xlink:href="#al"/><use transform="matrix(0.011907552083333333,0,0,0.011907552083333333,56.45370442708333,0)" xlink:href="#am"/><use transform="matrix(0.011907552083333333,0,0,0.011907552083333333,63.31245442708333,0)" xlink:href="#an"/></g><path fill="#a9afb8" d="M545 20c-263 0-445-160-445-446v-80h190v80c0 182 102 279 255 279 152 0 254-97 254-279v-1064h190v1064c0 286-181 446-444 446" id="ao"/><path fill="#a9afb8" d="M613 24c-304 0-509-231-509-576 0-350 205-580 509-580 305 0 511 230 511 580 0 345-206 576-511 576zm0-161c226 0 329-195 329-415 0-222-103-419-329-419-223 0-326 196-326 419 0 220 103 415 326 415" id="ap"/><path fill="#a9afb8" d="M471 26C259 26 90-98 90-318c0-256 228-303 435-329 202-27 287-16 287-108 0-139-79-219-234-219-161 0-248 86-283 164l-173-57c86-203 278-265 451-265 150 0 419 46 419 395V0H815v-152h-12C765-73 660 26 471 26zm31-159c199 0 310-134 310-271v-155c-30 35-226 55-295 64-131 17-246 59-246 186 0 116 97 176 231 176zm187-1180c-99 0-192-83-243-83-35 0-51 40-53 79H267c4-120 55-208 162-208 104 0 174 85 241 85 33 0 49-23 56-81h123c-4 126-62 208-160 208" id="aq"/><g id="s"><use transform="matrix(0.006946072048611111,0,0,0.006946072048611111,0,0)" xlink:href="#ao"/><use transform="matrix(0.006946072048611111,0,0,0.006946072048611111,8.119958224826389,0)" xlink:href="#ap"/><use transform="matrix(0.006946072048611111,0,0,0.006946072048611111,16.788656141493057,0)" xlink:href="#aq"/><use transform="matrix(0.006946072048611111,0,0,0.006946072048611111,24.776638997395835,0)" xlink:href="#ap"/></g><path fill="#a9afb8" d="M52 0l541-1490h220L1361 0h-200l-149-416H398L254 0H52zm404-582h497c-103-290-145-390-251-756-108 377-145 460-246 756" id="ar"/><path fill="#a9afb8" d="M158 0v-1118h175l1 205c55-151 181-225 313-225 147 0 245 90 285 228 53-141 190-228 352-228 194 0 352 125 352 384V0h-181v-749c0-161-105-225-225-225-151 0-243 103-243 244V0H807v-767c0-124-93-207-219-207-131 0-250 92-250 270V0H158" id="as"/><path fill="#a9afb8" d="M471 26C259 26 90-98 90-318c0-256 228-303 435-329 202-27 287-16 287-108 0-139-79-219-234-219-161 0-248 86-283 164l-173-57c86-203 278-265 451-265 150 0 419 46 419 395V0H815v-152h-12C765-73 660 26 471 26zm31-159c199 0 310-134 310-271v-155c-30 35-226 55-295 64-131 17-246 59-246 186 0 116 97 176 231 176zm-88-1149H237v-9l235-267h171l236 267v9H700l-142-175" id="at"/><path fill="#a9afb8" d="M338-670V0H158v-1118h173l1 207c72-158 192-221 342-221 226 0 378 139 378 422V0H872v-695c0-172-96-275-252-275-161 0-282 109-282 300" id="au"/><path fill="#a9afb8" d="M613 24c-304 0-509-231-509-576 0-350 205-580 509-580 216 0 392 114 453 309l-173 49c-33-115-133-197-280-197-223 0-326 196-326 419 0 220 103 415 326 415 150 0 252-85 285-206l172 49C1010-95 832 24 613 24" id="av"/><path fill="#a9afb8" d="M158 0v-1118h180V0H158zm91-1301c-68 0-125-53-125-119s57-119 125-119c69 0 126 53 126 119s-57 119-126 119" id="aw"/><g id="t"><use transform="matrix(0.006946072048611111,0,0,0.006946072048611111,0,0)" xlink:href="#ar"/><use transform="matrix(0.006946072048611111,0,0,0.006946072048611111,9.8147998046875,0)" xlink:href="#as"/><use transform="matrix(0.006946072048611111,0,0,0.006946072048611111,22.276053059895833,0)" xlink:href="#at"/><use transform="matrix(0.006946072048611111,0,0,0.006946072048611111,30.264035915798612,0)" xlink:href="#au"/><use transform="matrix(0.006946072048611111,0,0,0.006946072048611111,38.66878309461806,0)" xlink:href="#av"/><use transform="matrix(0.006946072048611111,0,0,0.006946072048611111,46.79568739149306,0)" xlink:href="#aw"/><use transform="matrix(0.006946072048611111,0,0,0.006946072048611111,50.24093912760417,0)" xlink:href="#ap"/></g><path fill="#a9afb8" d="M789 20c-398 0-667-293-667-764 0-473 273-766 655-766 315 0 558 198 612 487h-196c-61-191-204-311-415-311-262 0-471 207-471 590 0 380 208 588 482 588 249 0 420-165 425-427H828v-166h572v163c0 370-256 606-611 606" id="ax"/><path fill="#a9afb8" d="M338-670V0H158v-1490h180v566c73-149 190-208 336-208 226 0 379 139 379 422V0H872v-695c0-172-96-275-252-275-161 0-282 109-282 300" id="ay"/><path fill="#a9afb8" d="M628 24c-324 0-524-230-524-574 0-343 198-582 503-582 237 0 487 146 487 559v75H286c9 234 145 362 343 362 132 0 231-58 273-172l174 48C1024-91 857 24 628 24zM287-650h624c-17-190-120-322-304-322-192 0-309 151-320 322" id="az"/><path fill="#a9afb8" d="M158 0v-1118h174v172h12c41-113 157-188 290-188 26 0 70 2 91 3v181c-11-2-60-10-108-10-161 0-279 109-279 260V0H158" id="aA"/><path fill="#a9afb8" d="M471 26C259 26 90-98 90-318c0-256 228-303 435-329 202-27 287-16 287-108 0-139-79-219-234-219-161 0-248 86-283 164l-173-57c86-203 278-265 451-265 150 0 419 46 419 395V0H815v-152h-12C765-73 660 26 471 26zm31-159c199 0 310-134 310-271v-155c-30 35-226 55-295 64-131 17-246 59-246 186 0 116 97 176 231 176" id="aB"/><path fill="#a9afb8" d="M577 24c-279 0-473-224-473-580 0-354 195-576 474-576 218 0 287 134 324 193h14v-551h180V0H922v-173h-20C865-111 790 24 577 24zm27-161c203 0 314-172 314-421 0-247-108-413-314-413-212 0-317 181-317 413 0 235 108 421 317 421" id="aC"/><g id="u"><use transform="matrix(0.006946072048611111,0,0,0.006946072048611111,0,0)" xlink:href="#ax"/><use transform="matrix(0.006946072048611111,0,0,0.006946072048611111,10.613598090277778,0)" xlink:href="#ay"/><use transform="matrix(0.006946072048611111,0,0,0.006946072048611111,19.02529134114583,0)" xlink:href="#az"/><use transform="matrix(0.006946072048611111,0,0,0.006946072048611111,27.318901367187497,0)" xlink:href="#aA"/><use transform="matrix(0.006946072048611111,0,0,0.006946072048611111,32.67432291666666,0)" xlink:href="#aB"/><use transform="matrix(0.006946072048611111,0,0,0.006946072048611111,40.66230577256944,0)" xlink:href="#aA"/><use transform="matrix(0.006946072048611111,0,0,0.006946072048611111,45.78156087239583,0)" xlink:href="#aC"/><use transform="matrix(0.006946072048611111,0,0,0.006946072048611111,54.49193522135416,0)" xlink:href="#aw"/></g></defs></g></svg>